<?xml version="1.0" standalone="no"?>
<!DOCTYPE svg PUBLIC "-//W3C//DTD SVG 20010904//EN"
 "http://www.w3.org/TR/2001/REC-SVG-20010904/DTD/svg10.dtd">
<svg version="1.0" xmlns="http://www.w3.org/2000/svg"
 width="512.000000pt" height="512.000000pt" viewBox="0 0 512.000000 512.000000"
 preserveAspectRatio="xMidYMid meet">
<metadata>
Created by potrace 1.14, written by Peter Selinger 2001-2017
</metadata>
<g transform="translate(0.000000,512.000000) scale(0.100000,-0.100000)"
fill="#000000" stroke="none">
<path d="M2369 4860 c-297 -62 -471 -282 -524 -662 -3 -21 -7 -53 -9 -70 -3
-18 -8 -67 -12 -108 -5 -63 -25 -130 -38 -130 -15 0 -570 -193 -679 -236 -413
-164 -668 -331 -788 -517 -150 -231 -79 -511 156 -618 77 -35 129 -44 305 -54
232 -13 306 -19 356 -29 112 -23 140 -54 129 -141 -7 -57 -102 -261 -245 -525
-40 -74 -92 -171 -115 -215 -58 -110 -118 -221 -182 -340 -72 -132 -166 -326
-192 -395 -80 -207 -110 -456 -64 -518 41 -55 43 -55 727 -57 407 -1 643 2
670 8 78 20 139 96 338 422 140 229 209 337 237 367 16 18 42 48 58 66 15 18
41 35 57 38 44 8 123 -81 246 -276 57 -91 124 -198 149 -238 135 -216 202
-312 234 -336 70 -53 72 -54 752 -52 585 1 633 3 667 19 50 25 67 47 76 98 12
71 -18 259 -63 394 -36 109 -115 277 -225 481 -71 132 -108 201 -146 272 -20
37 -47 85 -59 107 -58 103 -204 390 -264 517 -32 69 -71 184 -71 211 0 24 28
56 65 75 33 17 94 24 405 47 203 15 295 31 358 61 121 59 187 171 199 340 12
166 -63 303 -252 460 -110 92 -316 210 -485 279 -36 14 -78 32 -95 40 -37 16
-350 126 -540 189 -77 26 -150 51 -162 58 -34 17 -35 22 -47 188 -4 47 -9 99
-12 115 -20 119 -27 152 -44 204 -50 156 -135 281 -245 357 -58 39 -181 92
-234 100 -20 3 -43 7 -51 10 -41 15 -259 11 -341 -6z"/>
</g>
</svg>
